<svg width="515" height="126" viewBox="0 0 515 126" fill="none" xmlns="http://www.w3.org/2000/svg">
<path d="M150 37L131 47L137.98 49L150 37Z" fill="#333333"/>
<path d="M150 37L140.226 56L138 49.0909L150 37Z" fill="#F03A47"/>
<path d="M67.9429 63.7968C68.431 63.7968 69.0167 63.8944 69.5048 64.0896L79.7548 67.9931C81.219 68.5786 82 69.457 82 70.5304C82 71.116 81.8048 71.7991 81.3167 72.4822C77.2167 78.7279 71.8476 83.5098 65.3071 86.9254C58.7667 90.341 51.7381 92 44.2214 92C36.3143 92 28.8952 90.1458 22.1595 86.3399C15.4238 82.5339 9.95714 77.3616 5.95476 70.8232C1.95238 64.1871 0 57.1607 0 49.4512C0 41.8393 1.95238 34.8129 5.95476 28.2744C9.95714 21.736 15.3262 16.5637 22.1595 12.7577C28.8952 8.95177 36.3143 7 44.319 7C51.6405 7 58.5714 8.75662 65.2095 12.1722C71.75 15.5878 77.119 20.3697 81.3167 26.3226C81.8048 27.0058 82 27.5913 82 28.2744C82 29.4455 81.3167 30.2262 79.8524 30.8117L69.6024 34.7153C69.1143 34.9104 68.5286 35.008 67.9429 35.008C66.7714 35.008 65.7952 34.5201 65.0143 33.4466C62.281 30.2262 59.1571 27.6889 55.5452 25.8347C51.9333 23.9805 48.2238 23.0046 44.319 23.0046C39.6333 23.0046 35.2405 24.1757 31.1405 26.6154C27.1381 29.0551 23.9167 32.2756 21.4762 36.3743C19.0357 40.473 17.8643 44.8645 17.8643 49.4512C17.8643 54.1355 19.0357 58.4294 21.3786 62.5281C23.7214 66.6269 26.9429 69.8473 30.9452 72.287C34.9476 74.7267 39.4381 75.9954 44.2214 75.9954C48.2238 75.9954 52.031 75.1171 55.7405 73.2629C59.45 71.4087 62.5738 68.8714 65.0143 65.5534C65.8929 64.3823 66.869 63.7968 67.9429 63.7968Z" fill="#0069D1"/>
<path d="M113.299 86.356C106.521 82.5633 101.118 77.3118 96.9923 70.796C92.9647 64.183 91 57.181 91 49.4982C91 41.9127 92.9647 34.9108 96.894 28.2978C100.823 21.6847 106.226 16.5305 113.103 12.7377C119.881 8.94499 127.347 7 135.402 7C143.457 7 150.923 8.84774 157.701 12.6405C164.479 16.4332 169.98 21.5875 174.008 28.1032C178.035 34.7162 180 41.8155 180 49.401C180 56.9865 178.035 64.0858 174.008 70.6988C169.98 77.3118 164.577 82.466 157.701 86.2588C150.825 90.0515 143.359 91.9965 135.304 91.9965C127.445 92.0938 120.077 90.1488 113.299 86.356ZM122.238 26.7417C118.211 29.173 114.871 32.3822 112.415 36.4667C109.959 40.5513 108.78 44.9275 108.78 49.4982C108.78 54.1663 109.959 58.4453 112.415 62.5298C114.871 66.6143 118.113 69.8235 122.14 72.352C126.168 74.7833 130.687 76.0475 135.5 76.0475C140.215 76.0475 144.734 74.7833 148.86 72.352C152.986 69.9208 156.326 66.6143 158.683 62.5298C161.041 58.5425 162.22 54.2635 162.22 49.4982C162.22 44.8302 161.041 40.5513 158.683 36.4667C156.326 32.4795 153.084 29.173 149.056 26.7417C144.832 24.3105 140.313 23.1435 135.598 23.1435C130.687 23.2408 126.266 24.4077 122.238 26.7417Z" fill="#333333"/>
<path d="M278.143 9C278.73 9 279.218 9.29531 279.511 9.7875C279.805 10.2797 280 11.0672 280 11.9532V87.6531C280 88.7359 279.707 89.5234 279.12 90.1141C278.534 90.7047 277.655 91 276.677 91H265.536C264.461 91 263.68 90.7047 263.093 90.1141C262.507 89.5234 262.214 88.6375 262.214 87.6531V51.5258L239.345 78.2029C238.661 79.0888 237.88 79.581 237 79.581C236.218 79.581 235.436 79.0888 234.655 78.2029L211.786 51.5258V87.6531C211.786 88.7359 211.493 89.5234 210.907 90.1141C210.32 90.7047 209.441 91 208.464 91H197.323C196.248 91 195.466 90.7047 194.88 90.1141C194.293 89.5234 194 88.6375 194 87.6531V11.9532C194 11.0672 194.195 10.3781 194.489 9.7875C194.782 9.29531 195.27 9 195.857 9C196.639 9 197.323 9.49219 198.105 10.3781L237 54.5774L275.895 10.3781C276.677 9.49219 277.459 9 278.143 9Z" fill="#0069D1"/>
<path d="M299.984 8.88825C300.574 8.2961 301.46 8 302.443 8H332.648C339.338 8 345.142 9.28302 350.16 11.849C355.178 14.415 359.113 18.0666 361.966 22.6064C364.721 27.1463 366 32.1796 366 37.7063C366 43.3317 364.721 48.2664 362.163 52.6088C359.605 56.9513 355.866 60.4055 350.849 62.8728C345.831 65.4388 339.633 66.7218 332.451 66.7218H316.808V87.6445C316.808 88.7301 316.512 89.5196 315.922 90.1118C315.332 90.7039 314.446 91 313.463 91H302.345C301.263 91 300.476 90.7039 299.885 90.1118C299.295 89.5196 299 88.6314 299 87.6445V11.3556C299.098 10.3686 299.394 9.4804 299.984 8.88825ZM335.206 51.3258C339.239 51.3258 342.486 50.0428 344.749 47.4768C347.012 44.9108 348.192 41.654 348.192 37.805C348.192 35.3377 347.602 32.9691 346.52 30.8966C345.339 28.824 343.765 27.0476 341.502 25.6659C339.239 24.2842 336.583 23.5934 333.435 23.5934H317.004V51.3258H335.206Z" fill="#0069D1"/>
<path d="M357.78 90.3834C357.293 89.9887 357 89.3967 357 88.7061C357 88.2128 357.195 87.6208 357.585 86.9302L398.159 9.77595C398.842 8.59199 399.622 8 400.5 8C401.573 8 402.353 8.59199 402.841 9.77595L443.415 86.9302C443.805 87.7195 444 88.3115 444 88.7061C444 89.3967 443.707 89.89 443.22 90.3834C442.732 90.778 441.952 90.9753 441.074 90.9753H428.785C427.029 90.9753 425.761 90.186 424.883 88.5088L419.617 78.2479H381.286L376.214 88.5088C375.434 90.186 374.166 90.9753 372.313 90.9753H359.926C359.048 91.074 358.365 90.8767 357.78 90.3834ZM411.034 62.9551L400.5 41.2493L390.064 62.9551H411.034Z" fill="#0069D1"/>
<path d="M446 78.6149C446 77.931 446.294 77.2471 446.785 76.4655L452.478 68.3563C453.067 67.2816 453.95 66.7931 454.932 66.7931C455.619 66.7931 456.306 67.0862 457.091 67.5747C460.624 70.0172 464.747 71.9712 469.36 73.6322C473.973 75.2931 478.193 76.0747 481.923 76.0747C486.536 76.0747 490.168 75.1954 493.014 73.4368C495.762 71.6782 497.235 69.5287 497.235 66.9885C497.235 63.2759 494.388 60.7356 488.597 59.0747L478.782 57.023C472.304 55.9483 467.004 54.6782 462.784 53.2126C458.563 51.7471 454.834 49.3046 451.496 46.0805C447.767 42.6609 446 37.8736 446 31.8161C446 23.5115 449.043 17.2586 455.226 13.1552C461.41 9.05171 469.262 7 478.782 7C484.77 7 490.07 7.68389 494.683 9.14941C499.394 10.6149 504.007 12.8621 508.62 15.9885C509.7 16.7701 510.191 17.6494 510.191 18.5287C510.191 19.3103 509.896 20.092 509.405 20.6782L503.418 28.7873C502.731 29.8621 501.946 30.3506 500.964 30.3506C500.179 30.3506 499.492 30.0575 498.707 29.569C495.37 27.5172 491.935 25.8563 488.499 24.6839C484.966 23.5115 481.531 23.023 478.193 23.023C474.267 23.023 470.93 23.7069 468.084 25.0747C465.336 26.4425 463.863 28.4942 463.863 31.1322C463.863 32.7931 464.55 34.1609 466.023 35.3333C467.495 36.5057 469.262 37.2874 471.323 37.7759C472.795 38.2644 475.838 38.9483 480.255 39.9253L484.279 40.7069C491.248 42.0747 496.744 43.4425 500.572 45.0057C504.4 46.4713 507.737 48.9138 510.485 52.1379C513.528 55.5575 515 60.3448 515 66.5C515 74.7069 512.055 80.9598 506.265 85.3563C500.376 89.7529 492.425 92 482.119 92C468.477 92 456.895 88.3851 447.374 81.1552C446.491 80.4713 446 79.5919 446 78.6149Z" fill="#0069D1"/>
<path d="M322.346 125H320.26L314.5 107.7L308.938 125H306.753L306.555 124.4L305.76 121.9L303.277 114.3L300 104H302.384L307.747 121.2L313.11 104.3H315.692L321.055 121.2L326.616 104H329L322.346 125Z" fill="#231F20"/>
<path d="M378.092 119.283C377.487 120.646 376.68 121.814 375.671 122.788C374.662 123.761 373.452 124.54 372.039 125.124C370.627 125.708 369.114 126 367.5 126C365.886 126 364.373 125.708 362.961 125.124C361.548 124.54 360.338 123.761 359.329 122.788C358.32 121.814 357.513 120.646 356.908 119.283C356.303 117.92 356 116.558 356 115C356 113.442 356.303 112.08 356.908 110.717C357.513 109.354 358.32 108.186 359.329 107.212C360.338 106.239 361.548 105.46 362.961 104.876C364.373 104.292 365.886 104 367.5 104C369.114 104 370.627 104.292 372.039 104.876C373.452 105.46 374.662 106.239 375.671 107.31C376.68 108.283 377.487 109.451 378.092 110.814C378.697 112.177 379 113.54 379 115.097C379 116.46 378.697 117.92 378.092 119.283ZM375.772 111.496C375.268 110.425 374.662 109.451 373.855 108.673C373.048 107.894 372.14 107.212 371.031 106.823C369.921 106.336 368.811 106.142 367.601 106.142C366.39 106.142 365.18 106.336 364.07 106.823C362.961 107.31 361.952 107.894 361.145 108.673C360.338 109.451 359.632 110.425 359.127 111.496C358.623 112.566 358.421 113.735 358.421 114.903C358.421 116.071 358.623 117.239 359.127 118.31C359.632 119.381 360.237 120.354 361.044 121.133C361.851 121.912 362.86 122.593 363.868 123.08C364.978 123.566 366.088 123.761 367.298 123.761C368.509 123.761 369.719 123.566 370.829 123.08C371.939 122.593 372.847 122.009 373.654 121.133C374.461 120.354 375.167 119.381 375.57 118.31C376.075 117.239 376.276 116.071 376.276 114.903C376.276 113.735 376.276 112.566 375.772 111.496Z" fill="#231F20"/>
<path d="M418.472 124.9C418.181 124.204 417.889 123.507 417.597 123.009C417.306 122.512 417.014 121.915 416.722 121.218C416.431 120.621 416.042 120.024 415.75 119.526C415.458 119.128 415.167 118.63 414.778 118.133C414.389 117.635 414 117.237 413.708 116.739C413.319 116.341 412.931 115.844 412.444 115.346H409.236V124.801H407V104H412.056C412.931 104 413.806 104.1 414.583 104.398C415.361 104.597 416.139 104.995 416.722 105.493C417.306 105.991 417.889 106.488 418.181 107.185C418.569 107.882 418.764 108.678 418.764 109.573C418.764 110.768 418.375 111.763 417.694 112.758C417.014 113.754 415.944 114.55 414.681 115.246C415.069 115.645 415.361 116.043 415.653 116.341C415.944 116.64 416.236 117.038 416.528 117.436C416.819 117.834 417.111 118.133 417.306 118.531C417.694 119.128 418.181 119.825 418.569 120.521C418.958 121.218 419.347 121.915 419.736 122.611C420.125 123.308 420.514 124.005 421 125L418.472 124.9ZM416.042 108.18C415.847 107.782 415.556 107.384 415.167 107.085C414.778 106.787 414.389 106.588 414 106.389C413.611 106.19 413.222 106.09 412.833 106.09H409.236V113.654H412.153C412.639 113.654 413.222 113.554 413.708 113.355C414.194 113.156 414.681 112.957 415.069 112.559C415.458 112.161 415.847 111.763 416.042 111.265C416.333 110.768 416.431 110.171 416.431 109.474C416.431 109.076 416.333 108.578 416.042 108.18Z" fill="#231F20"/>
<path d="M450 125V105H451.913V123.278H461V125H450Z" fill="#231F20"/>
<path d="M508.303 119.258C507.727 120.502 507.054 121.555 505.996 122.416C505.035 123.278 503.881 123.947 502.44 124.33C501.094 124.809 499.556 125 497.921 125H491V105H498.306C499.844 105 501.286 105.191 502.632 105.67C503.978 106.148 505.035 106.818 505.996 107.679C506.958 108.541 507.727 109.593 508.207 110.837C508.784 112.081 508.976 113.421 508.976 114.952C509.073 116.579 508.88 118.014 508.303 119.258ZM505.708 111.029C505.131 110.072 504.362 109.211 503.401 108.636C502.44 108.062 501.382 107.584 500.229 107.392C499.075 107.105 497.921 107.01 496.768 107.01H493.211V123.086H497.056C498.402 123.086 499.556 122.99 500.709 122.703C501.863 122.416 502.92 121.938 503.785 121.364C504.651 120.694 505.323 119.833 505.804 118.78C506.285 117.727 506.573 116.388 506.573 114.856C506.573 113.325 506.285 112.081 505.708 111.029Z" fill="#231F20"/>
<path d="M135.5 0L139.397 7.5H131.603L135.5 0Z" fill="#333333"/>
<path d="M135.5 99L131.603 91.5L139.397 91.5L135.5 99Z" fill="#333333"/>
<path d="M85 49L92.5 44.6699L92.5 53.3301L85 49Z" fill="#333333"/>
<path d="M186 49L179.25 53.3301L179.25 44.6699L186 49Z" fill="#333333"/>
</svg>
